<svg xmlns="http://www.w3.org/2000/svg" viewBox="0 0 200 200">
<def><style>.cls-1 { fill: rgba(0,0,0,0.0); stroke: rgba(255,255,255,0.0); stroke-width:1px;) }</style></def>
<path class="cls-1" d="M79.07,104.71V93.43h1.65v9.9h5.47v1.38Z"/>
<path class="cls-1" d="M89.3,104.13a4.69,4.69,0,0,1-1.82-2,6.83,6.83,0,0,1-.64-3.06A7,7,0,0,1,87.48,96a4.56,4.56,0,0,1,1.82-2,5.95,5.95,0,0,1,5.58,0,4.57,4.57,0,0,1,1.82,2,7.74,7.74,0,0,1,0,6.13,4.62,4.62,0,0,1-1.82,2,5.37,5.37,0,0,1-2.8.7A5.3,5.3,0,0,1,89.3,104.13Zm5.42-1.79a6.18,6.18,0,0,0,0-6.55,3.23,3.23,0,0,0-2.65-1.14,3.19,3.19,0,0,0-2.62,1.14,6.2,6.2,0,0,0,0,6.55,3.18,3.18,0,0,0,2.62,1.15A3.22,3.22,0,0,0,94.72,102.34Z"/>
<path class="cls-1" d="M108.72,98.72V104a7,7,0,0,1-1.81.58,11.35,11.35,0,0,1-2.21.22,6,6,0,0,1-3-.69,4.56,4.56,0,0,1-1.9-2,7.62,7.62,0,0,1,0-6.18,4.6,4.6,0,0,1,1.88-2,5.8,5.8,0,0,1,2.89-.69,6.66,6.66,0,0,1,2.21.35,4.68,4.68,0,0,1,1.71,1l-.59,1.22a5.52,5.52,0,0,0-1.58-.94,5,5,0,0,0-1.73-.29,3.48,3.48,0,0,0-2.79,1.13,6,6,0,0,0,0,6.59,3.65,3.65,0,0,0,2.9,1.13,8.44,8.44,0,0,0,2.46-.37V100h-2.62V98.72Z"/>
<path class="cls-1" d="M113.29,104.13a4.68,4.68,0,0,1-1.82-2,6.83,6.83,0,0,1-.64-3.06,7,7,0,0,1,.63-3.08,4.57,4.57,0,0,1,1.82-2,5.95,5.95,0,0,1,5.58,0,4.57,4.57,0,0,1,1.82,2,7.74,7.74,0,0,1,0,6.13,4.62,4.62,0,0,1-1.82,2,5.37,5.37,0,0,1-2.8.7A5.3,5.3,0,0,1,113.29,104.13Zm5.42-1.79a6.18,6.18,0,0,0,0-6.55,3.23,3.23,0,0,0-2.65-1.14,3.19,3.19,0,0,0-2.62,1.14,6.2,6.2,0,0,0,0,6.55,3.18,3.18,0,0,0,2.62,1.15A3.22,3.22,0,0,0,118.7,102.34Z"/>
<polygon class="cls-1" points="3.09 197.44 1.4 199.14 0.54 200 0 200 0 199.46 0.32 199.14 2.56 196.91 3.09 197.44"/>
<path class="cls-1" d="M10.89,188.58l-5.55,5.55.53.53,5.55-5.55Zm8.33-8.33-5.55,5.55.53.53,5.55-5.55Zm8.33-8.33L22,177.47l.53.53,5.55-5.55Zm8.33-8.33-5.55,5.55.53.53,5.55-5.55Zm8.33-8.33-5.55,5.55.53.53,5.55-5.55Zm8.33-8.33L47,152.49l.54.53,5.55-5.56Zm8.33-8.33-5.56,5.56.53.53,5.56-5.56Zm8.33-8.33-5.56,5.56.53.53,5.56-5.55ZM77.52,122,72,127.5l.53.53L78,122.48Zm8.33-8.33-5.55,5.55.53.53,5.55-5.55ZM119.17,80.3l-5.55,5.55.53.53,5.55-5.55ZM127.5,72,122,77.52l.53.53L128,72.5Zm8.33-8.33-5.56,5.56.54.53,5.55-5.56Zm8.33-8.33-5.56,5.56.53.53,5.56-5.56ZM152.49,47l-5.56,5.56.53.53L153,47.52Zm8.32-8.32-5.55,5.55.53.53,5.56-5.55Zm8.33-8.33-5.55,5.55.53.53,5.55-5.55ZM177.47,22l-5.55,5.55.53.53L178,22.53Zm8.33-8.33-5.55,5.55.53.53,5.55-5.55Zm8.33-8.33-5.55,5.55.53.53,5.55-5.55Z"/>
<polygon class="cls-1" points="197.44 3.09 196.91 2.56 199.47 0 200 0 200 0.53 197.44 3.09"/>
<polygon class="cls-1" points="2.56 3.09 0 0.53 0 0 0.53 0 3.09 2.56 2.56 3.09"/>
<path class="cls-1" d="M194.13,194.66l-5.55-5.55.53-.53,5.55,5.55Zm-8.33-8.33-5.55-5.55.53-.53,5.55,5.55ZM177.47,178l-5.55-5.55.53-.53,5.55,5.55Zm-8.33-8.33-5.55-5.55.53-.53,5.55,5.55Zm-8.33-8.33-5.55-5.55.53-.53,5.55,5.55ZM152.49,153l-5.55-5.55.53-.53,5.55,5.55Zm-8.33-8.33-5.55-5.55.53-.53,5.55,5.55Zm-8.33-8.33-5.55-5.55.53-.53,5.55,5.55ZM127.5,128l-5.55-5.55.53-.53L128,127.5Zm-8.33-8.33-5.55-5.55.53-.53,5.55,5.55ZM85.85,86.38,80.3,80.83l.53-.53,5.55,5.55Zm-8.33-8.33L72,72.5,72.5,72l5.55,5.55ZM69.2,69.73l-5.55-5.55.53-.53,5.55,5.55ZM60.87,61.4l-5.55-5.55.53-.53,5.55,5.55Zm-8.33-8.33L47,47.52l.53-.53,5.55,5.55Zm-8.33-8.33-5.55-5.55.53-.53,5.55,5.55Zm-8.33-8.33-5.55-5.55.53-.53,5.55,5.55Zm-8.33-8.33L22,22.53l.53-.53,5.55,5.55Zm-8.33-8.33L13.67,14.2l.53-.53,5.55,5.55Zm-8.33-8.33L5.34,5.87l.53-.53,5.55,5.55Z"/>
<polygon class="cls-1" points="199.47 200 196.91 197.44 197.44 196.91 200 199.47 200 200 199.47 200"/>
</svg>